# xmcd
#
# Track frame offsets: 
#        150
#        10868
#        26885
#        41454
#        61288
#        80242
#        90331
#        103674
#        116168
#        135158
#        151452
#        165995
#        181558
#        195304
#        216023
#        237718
#
# Disc length: 3265 seconds
#
# Revision: 0
# Processed by: cddbd v1.5.2PL0 Copyright (c) Steve Scherf et al.
# Submitted via: ExactAudioCopy v1.0b3
#
DISCID=c60cbf10
DTITLE=MERRY - Beautiful Freaks
DYEAR=2011
DGENRE=Rock
TTITLE0=choral-
TTITLE1=finale
TTITLE2=モノクローム
TTITLE3=ザァーザァー
TTITLE4=Fleeting Prayer
TTITLE5=sabbat-
TTITLE6=不均衡キネマ
TTITLE7=絶望
TTITLE8=スカル
TTITLE9=夜光
TTITLE10=クライシスモメント
TTITLE11=消毒
TTITLE12=The Cry Against ME
TTITLE13=アイデンティティー
TTITLE14=SWAN
TTITLE15=dawn-
EXTD=
EXTT0=
EXTT1=
EXTT2=
EXTT3=
EXTT4=
EXTT5=
EXTT6=
EXTT7=
EXTT8=
EXTT9=
EXTT10=
EXTT11=
EXTT12=
EXTT13=
EXTT14=
EXTT15=
PLAYORDER=
